G04 #@! TF.GenerationSoftware,KiCad,Pcbnew,9.0.1+1*
G04 #@! TF.CreationDate,2025-08-20T07:53:21+00:00*
G04 #@! TF.ProjectId,intergalaktik,696e7465-7267-4616-9c61-6b74696b2e6b,v1.0*
G04 #@! TF.SameCoordinates,Original*
G04 #@! TF.FileFunction,Legend,Top*
G04 #@! TF.FilePolarity,Positive*
%FSLAX46Y46*%
G04 Gerber Fmt 4.6, Leading zero omitted, Abs format (unit mm)*
G04 Created by KiCad (PCBNEW 9.0.1+1) date 2025-08-20 07:53:21*
%MOMM*%
%LPD*%
G01*
G04 APERTURE LIST*
%ADD10C,0.150000*%
%ADD11C,0.010000*%
%ADD12C,0.120000*%
%ADD13C,0.300000*%
%ADD14C,6.000000*%
%ADD15C,1.000000*%
%ADD16R,1.700000X1.700000*%
%ADD17C,1.700000*%
G04 APERTURE END LIST*
D10*
X136234819Y-118950594D02*
X135234819Y-118950594D01*
X135234819Y-118950594D02*
X135234819Y-118712499D01*
X135234819Y-118712499D02*
X135282438Y-118569642D01*
X135282438Y-118569642D02*
X135377676Y-118474404D01*
X135377676Y-118474404D02*
X135472914Y-118426785D01*
X135472914Y-118426785D02*
X135663390Y-118379166D01*
X135663390Y-118379166D02*
X135806247Y-118379166D01*
X135806247Y-118379166D02*
X135996723Y-118426785D01*
X135996723Y-118426785D02*
X136091961Y-118474404D01*
X136091961Y-118474404D02*
X136187200Y-118569642D01*
X136187200Y-118569642D02*
X136234819Y-118712499D01*
X136234819Y-118712499D02*
X136234819Y-118950594D01*
X136234819Y-117426785D02*
X136234819Y-117998213D01*
X136234819Y-117712499D02*
X135234819Y-117712499D01*
X135234819Y-117712499D02*
X135377676Y-117807737D01*
X135377676Y-117807737D02*
X135472914Y-117902975D01*
X135472914Y-117902975D02*
X135520533Y-117998213D01*
X132386666Y-111964819D02*
X132386666Y-112679104D01*
X132386666Y-112679104D02*
X132339047Y-112821961D01*
X132339047Y-112821961D02*
X132243809Y-112917200D01*
X132243809Y-112917200D02*
X132100952Y-112964819D01*
X132100952Y-112964819D02*
X132005714Y-112964819D01*
X133386666Y-112964819D02*
X132815238Y-112964819D01*
X133100952Y-112964819D02*
X133100952Y-111964819D01*
X133100952Y-111964819D02*
X133005714Y-112107676D01*
X133005714Y-112107676D02*
X132910476Y-112202914D01*
X132910476Y-112202914D02*
X132815238Y-112250533D01*
X137263333Y-112389819D02*
X136930000Y-111913628D01*
X136691905Y-112389819D02*
X136691905Y-111389819D01*
X136691905Y-111389819D02*
X137072857Y-111389819D01*
X137072857Y-111389819D02*
X137168095Y-111437438D01*
X137168095Y-111437438D02*
X137215714Y-111485057D01*
X137215714Y-111485057D02*
X137263333Y-111580295D01*
X137263333Y-111580295D02*
X137263333Y-111723152D01*
X137263333Y-111723152D02*
X137215714Y-111818390D01*
X137215714Y-111818390D02*
X137168095Y-111866009D01*
X137168095Y-111866009D02*
X137072857Y-111913628D01*
X137072857Y-111913628D02*
X136691905Y-111913628D01*
X138215714Y-112389819D02*
X137644286Y-112389819D01*
X137930000Y-112389819D02*
X137930000Y-111389819D01*
X137930000Y-111389819D02*
X137834762Y-111532676D01*
X137834762Y-111532676D02*
X137739524Y-111627914D01*
X137739524Y-111627914D02*
X137644286Y-111675533D01*
D11*
X132531479Y-104381430D02*
X132555148Y-104418882D01*
X132559818Y-104451227D01*
X132550397Y-104495276D01*
X132531479Y-104521025D01*
X132503141Y-104549364D01*
X131811416Y-104549364D01*
X131781526Y-104513842D01*
X131762058Y-104484128D01*
X131752010Y-104455943D01*
X131751636Y-104451227D01*
X131758892Y-104424959D01*
X131776814Y-104394552D01*
X131781526Y-104388613D01*
X131811416Y-104353091D01*
X132503141Y-104353091D01*
X132531479Y-104381430D01*
G36*
X132531479Y-104381430D02*
G01*
X132555148Y-104418882D01*
X132559818Y-104451227D01*
X132550397Y-104495276D01*
X132531479Y-104521025D01*
X132503141Y-104549364D01*
X131811416Y-104549364D01*
X131781526Y-104513842D01*
X131762058Y-104484128D01*
X131752010Y-104455943D01*
X131751636Y-104451227D01*
X131758892Y-104424959D01*
X131776814Y-104394552D01*
X131781526Y-104388613D01*
X131811416Y-104353091D01*
X132503141Y-104353091D01*
X132531479Y-104381430D01*
G37*
X132251167Y-104872799D02*
X132332040Y-104873487D01*
X132395067Y-104875000D01*
X132442871Y-104877638D01*
X132478073Y-104881700D01*
X132503295Y-104887487D01*
X132521160Y-104895298D01*
X132534289Y-104905432D01*
X132545019Y-104917818D01*
X132557125Y-104949012D01*
X132557906Y-104988649D01*
X132547343Y-105024464D01*
X132536631Y-105040423D01*
X132521774Y-105053064D01*
X132500213Y-105062749D01*
X132469388Y-105069841D01*
X132426741Y-105074701D01*
X132369710Y-105077693D01*
X132295737Y-105079177D01*
X132202262Y-105079517D01*
X132158985Y-105079413D01*
X132076292Y-105078718D01*
X131999470Y-105077305D01*
X131932094Y-105075302D01*
X131877738Y-105072834D01*
X131839978Y-105070029D01*
X131823941Y-105067575D01*
X131788445Y-105046428D01*
X131762502Y-105010463D01*
X131751683Y-104967609D01*
X131751636Y-104964685D01*
X131759473Y-104941162D01*
X131778940Y-104913281D01*
X131785385Y-104906385D01*
X131819133Y-104872637D01*
X132149825Y-104872637D01*
X132251167Y-104872799D01*
G36*
X132251167Y-104872799D02*
G01*
X132332040Y-104873487D01*
X132395067Y-104875000D01*
X132442871Y-104877638D01*
X132478073Y-104881700D01*
X132503295Y-104887487D01*
X132521160Y-104895298D01*
X132534289Y-104905432D01*
X132545019Y-104917818D01*
X132557125Y-104949012D01*
X132557906Y-104988649D01*
X132547343Y-105024464D01*
X132536631Y-105040423D01*
X132521774Y-105053064D01*
X132500213Y-105062749D01*
X132469388Y-105069841D01*
X132426741Y-105074701D01*
X132369710Y-105077693D01*
X132295737Y-105079177D01*
X132202262Y-105079517D01*
X132158985Y-105079413D01*
X132076292Y-105078718D01*
X131999470Y-105077305D01*
X131932094Y-105075302D01*
X131877738Y-105072834D01*
X131839978Y-105070029D01*
X131823941Y-105067575D01*
X131788445Y-105046428D01*
X131762502Y-105010463D01*
X131751683Y-104967609D01*
X131751636Y-104964685D01*
X131759473Y-104941162D01*
X131778940Y-104913281D01*
X131785385Y-104906385D01*
X131819133Y-104872637D01*
X132149825Y-104872637D01*
X132251167Y-104872799D01*
G37*
X132562270Y-103822057D02*
X132678777Y-103822309D01*
X132775906Y-103822965D01*
X132855515Y-103824214D01*
X132919461Y-103826247D01*
X132969600Y-103829255D01*
X133007790Y-103833426D01*
X133035887Y-103838952D01*
X133055748Y-103846022D01*
X133069230Y-103854827D01*
X133078190Y-103865556D01*
X133084484Y-103878400D01*
X133088746Y-103890031D01*
X133095094Y-103934164D01*
X133089057Y-103960896D01*
X133083663Y-103975718D01*
X133077423Y-103988246D01*
X133068479Y-103998673D01*
X133054975Y-104007191D01*
X133035055Y-104013991D01*
X133006861Y-104019268D01*
X132968537Y-104023211D01*
X132918226Y-104026014D01*
X132854072Y-104027869D01*
X132774219Y-104028967D01*
X132676809Y-104029502D01*
X132559986Y-104029664D01*
X132424732Y-104029648D01*
X132284749Y-104029473D01*
X132166293Y-104029010D01*
X132067805Y-104028221D01*
X131987724Y-104027070D01*
X131924488Y-104025519D01*
X131876536Y-104023530D01*
X131842307Y-104021066D01*
X131820240Y-104018089D01*
X131809364Y-104014878D01*
X131774804Y-103986405D01*
X131757565Y-103948785D01*
X131757638Y-103908134D01*
X131775015Y-103870564D01*
X131809619Y-103842223D01*
X131820325Y-103837623D01*
X131833902Y-103833774D01*
X131852363Y-103830610D01*
X131877718Y-103828064D01*
X131911980Y-103826071D01*
X131957159Y-103824565D01*
X132015268Y-103823479D01*
X132088318Y-103822748D01*
X132178320Y-103822304D01*
X132287286Y-103822083D01*
X132417228Y-103822018D01*
X132424530Y-103822018D01*
X132562270Y-103822057D01*
G36*
X132562270Y-103822057D02*
G01*
X132678777Y-103822309D01*
X132775906Y-103822965D01*
X132855515Y-103824214D01*
X132919461Y-103826247D01*
X132969600Y-103829255D01*
X133007790Y-103833426D01*
X133035887Y-103838952D01*
X133055748Y-103846022D01*
X133069230Y-103854827D01*
X133078190Y-103865556D01*
X133084484Y-103878400D01*
X133088746Y-103890031D01*
X133095094Y-103934164D01*
X133089057Y-103960896D01*
X133083663Y-103975718D01*
X133077423Y-103988246D01*
X133068479Y-103998673D01*
X133054975Y-104007191D01*
X133035055Y-104013991D01*
X133006861Y-104019268D01*
X132968537Y-104023211D01*
X132918226Y-104026014D01*
X132854072Y-104027869D01*
X132774219Y-104028967D01*
X132676809Y-104029502D01*
X132559986Y-104029664D01*
X132424732Y-104029648D01*
X132284749Y-104029473D01*
X132166293Y-104029010D01*
X132067805Y-104028221D01*
X131987724Y-104027070D01*
X131924488Y-104025519D01*
X131876536Y-104023530D01*
X131842307Y-104021066D01*
X131820240Y-104018089D01*
X131809364Y-104014878D01*
X131774804Y-103986405D01*
X131757565Y-103948785D01*
X131757638Y-103908134D01*
X131775015Y-103870564D01*
X131809619Y-103842223D01*
X131820325Y-103837623D01*
X131833902Y-103833774D01*
X131852363Y-103830610D01*
X131877718Y-103828064D01*
X131911980Y-103826071D01*
X131957159Y-103824565D01*
X132015268Y-103823479D01*
X132088318Y-103822748D01*
X132178320Y-103822304D01*
X132287286Y-103822083D01*
X132417228Y-103822018D01*
X132424530Y-103822018D01*
X132562270Y-103822057D01*
G37*
X142424614Y-103841525D02*
X142457968Y-103869408D01*
X142475663Y-103910415D01*
X142477364Y-103929485D01*
X142476186Y-103937971D01*
X142471899Y-103948537D01*
X142463368Y-103962390D01*
X142449463Y-103980735D01*
X142429050Y-104004778D01*
X142400996Y-104035726D01*
X142364170Y-104074784D01*
X142317439Y-104123158D01*
X142259669Y-104182055D01*
X142189729Y-104252681D01*
X142106487Y-104336241D01*
X142008809Y-104433941D01*
X141926068Y-104516550D01*
X141832173Y-104610012D01*
X141742641Y-104698670D01*
X141658872Y-104781168D01*
X141582268Y-104856148D01*
X141514230Y-104922251D01*
X141456158Y-104978120D01*
X141409454Y-105022396D01*
X141375518Y-105053721D01*
X141355751Y-105070738D01*
X141351561Y-105073474D01*
X141326377Y-105072952D01*
X141294159Y-105062953D01*
X141288185Y-105060150D01*
X141251317Y-105030943D01*
X141232932Y-104991898D01*
X141234224Y-104952190D01*
X141243485Y-104939350D01*
X141267864Y-104911619D01*
X141306060Y-104870344D01*
X141356773Y-104816871D01*
X141418704Y-104752549D01*
X141490553Y-104678724D01*
X141571020Y-104596742D01*
X141658805Y-104507951D01*
X141752609Y-104413698D01*
X141788377Y-104377914D01*
X141896307Y-104270095D01*
X141989169Y-104177464D01*
X142068209Y-104098870D01*
X142134674Y-104033160D01*
X142189811Y-103979182D01*
X142234867Y-103935784D01*
X142271089Y-103901814D01*
X142299723Y-103876121D01*
X142322016Y-103857551D01*
X142339215Y-103844954D01*
X142352567Y-103837176D01*
X142363319Y-103833067D01*
X142372717Y-103831474D01*
X142380030Y-103831236D01*
X142424614Y-103841525D01*
G36*
X142424614Y-103841525D02*
G01*
X142457968Y-103869408D01*
X142475663Y-103910415D01*
X142477364Y-103929485D01*
X142476186Y-103937971D01*
X142471899Y-103948537D01*
X142463368Y-103962390D01*
X142449463Y-103980735D01*
X142429050Y-104004778D01*
X142400996Y-104035726D01*
X142364170Y-104074784D01*
X142317439Y-104123158D01*
X142259669Y-104182055D01*
X142189729Y-104252681D01*
X142106487Y-104336241D01*
X142008809Y-104433941D01*
X141926068Y-104516550D01*
X141832173Y-104610012D01*
X141742641Y-104698670D01*
X141658872Y-104781168D01*
X141582268Y-104856148D01*
X141514230Y-104922251D01*
X141456158Y-104978120D01*
X141409454Y-105022396D01*
X141375518Y-105053721D01*
X141355751Y-105070738D01*
X141351561Y-105073474D01*
X141326377Y-105072952D01*
X141294159Y-105062953D01*
X141288185Y-105060150D01*
X141251317Y-105030943D01*
X141232932Y-104991898D01*
X141234224Y-104952190D01*
X141243485Y-104939350D01*
X141267864Y-104911619D01*
X141306060Y-104870344D01*
X141356773Y-104816871D01*
X141418704Y-104752549D01*
X141490553Y-104678724D01*
X141571020Y-104596742D01*
X141658805Y-104507951D01*
X141752609Y-104413698D01*
X141788377Y-104377914D01*
X141896307Y-104270095D01*
X141989169Y-104177464D01*
X142068209Y-104098870D01*
X142134674Y-104033160D01*
X142189811Y-103979182D01*
X142234867Y-103935784D01*
X142271089Y-103901814D01*
X142299723Y-103876121D01*
X142322016Y-103857551D01*
X142339215Y-103844954D01*
X142352567Y-103837176D01*
X142363319Y-103833067D01*
X142372717Y-103831474D01*
X142380030Y-103831236D01*
X142424614Y-103841525D01*
G37*
X141459929Y-103824347D02*
X141513425Y-103826747D01*
X141553419Y-103830958D01*
X141582310Y-103837341D01*
X141602492Y-103846256D01*
X141616363Y-103858062D01*
X141626320Y-103873121D01*
X141634227Y-103890504D01*
X141642505Y-103927174D01*
X141640908Y-103957435D01*
X141631626Y-103970737D01*
X141607562Y-103998562D01*
X141570382Y-104039226D01*
X141521750Y-104091047D01*
X141463332Y-104152338D01*
X141396792Y-104221417D01*
X141323795Y-104296599D01*
X141246007Y-104376200D01*
X141165093Y-104458535D01*
X141082717Y-104541922D01*
X141000545Y-104624675D01*
X140920241Y-104705110D01*
X140843471Y-104781543D01*
X140771900Y-104852291D01*
X140707192Y-104915668D01*
X140651014Y-104969992D01*
X140605029Y-105013577D01*
X140570903Y-105044740D01*
X140550301Y-105061796D01*
X140546960Y-105063935D01*
X140504479Y-105078837D01*
X140467846Y-105072883D01*
X140432930Y-105046706D01*
X140406251Y-105009875D01*
X140399182Y-104974887D01*
X140400269Y-104965552D01*
X140404367Y-104954477D01*
X140412730Y-104940302D01*
X140426609Y-104921666D01*
X140447260Y-104897209D01*
X140475934Y-104865570D01*
X140513887Y-104825389D01*
X140562371Y-104775306D01*
X140622639Y-104713960D01*
X140695946Y-104639991D01*
X140783544Y-104552038D01*
X140851454Y-104484009D01*
X141303726Y-104031201D01*
X141069795Y-104027623D01*
X140835864Y-104024046D01*
X140808023Y-103991652D01*
X140784588Y-103949411D01*
X140783774Y-103905554D01*
X140805580Y-103863100D01*
X140808032Y-103860167D01*
X140835883Y-103827773D01*
X141194467Y-103824415D01*
X141302847Y-103823542D01*
X141390535Y-103823399D01*
X141459929Y-103824347D01*
G36*
X141459929Y-103824347D02*
G01*
X141513425Y-103826747D01*
X141553419Y-103830958D01*
X141582310Y-103837341D01*
X141602492Y-103846256D01*
X141616363Y-103858062D01*
X141626320Y-103873121D01*
X141634227Y-103890504D01*
X141642505Y-103927174D01*
X141640908Y-103957435D01*
X141631626Y-103970737D01*
X141607562Y-103998562D01*
X141570382Y-104039226D01*
X141521750Y-104091047D01*
X141463332Y-104152338D01*
X141396792Y-104221417D01*
X141323795Y-104296599D01*
X141246007Y-104376200D01*
X141165093Y-104458535D01*
X141082717Y-104541922D01*
X141000545Y-104624675D01*
X140920241Y-104705110D01*
X140843471Y-104781543D01*
X140771900Y-104852291D01*
X140707192Y-104915668D01*
X140651014Y-104969992D01*
X140605029Y-105013577D01*
X140570903Y-105044740D01*
X140550301Y-105061796D01*
X140546960Y-105063935D01*
X140504479Y-105078837D01*
X140467846Y-105072883D01*
X140432930Y-105046706D01*
X140406251Y-105009875D01*
X140399182Y-104974887D01*
X140400269Y-104965552D01*
X140404367Y-104954477D01*
X140412730Y-104940302D01*
X140426609Y-104921666D01*
X140447260Y-104897209D01*
X140475934Y-104865570D01*
X140513887Y-104825389D01*
X140562371Y-104775306D01*
X140622639Y-104713960D01*
X140695946Y-104639991D01*
X140783544Y-104552038D01*
X140851454Y-104484009D01*
X141303726Y-104031201D01*
X141069795Y-104027623D01*
X140835864Y-104024046D01*
X140808023Y-103991652D01*
X140784588Y-103949411D01*
X140783774Y-103905554D01*
X140805580Y-103863100D01*
X140808032Y-103860167D01*
X140835883Y-103827773D01*
X141194467Y-103824415D01*
X141302847Y-103823542D01*
X141390535Y-103823399D01*
X141459929Y-103824347D01*
G37*
X128542624Y-103878574D02*
X128577504Y-103906565D01*
X128597128Y-103947379D01*
X128599727Y-103970644D01*
X128599074Y-103979481D01*
X128596350Y-103989241D01*
X128590410Y-104001156D01*
X128580110Y-104016456D01*
X128564302Y-104036375D01*
X128541843Y-104062144D01*
X128511587Y-104094994D01*
X128472388Y-104136157D01*
X128423101Y-104186865D01*
X128362580Y-104248350D01*
X128289681Y-104321844D01*
X128203258Y-104408577D01*
X128102166Y-104509783D01*
X128048297Y-104563661D01*
X127939340Y-104672549D01*
X127845438Y-104766190D01*
X127765375Y-104845720D01*
X127697936Y-104912277D01*
X127641905Y-104966998D01*
X127596066Y-105011020D01*
X127559203Y-105045479D01*
X127530100Y-105071513D01*
X127507541Y-105090258D01*
X127490311Y-105102851D01*
X127477194Y-105110430D01*
X127466973Y-105114131D01*
X127458591Y-105115091D01*
X127419562Y-105106235D01*
X127386566Y-105081343D01*
X127359963Y-105044695D01*
X127352818Y-105009318D01*
X127353821Y-105000758D01*
X127357586Y-104990492D01*
X127365251Y-104977307D01*
X127377953Y-104959985D01*
X127396829Y-104937311D01*
X127423015Y-104908069D01*
X127457649Y-104871043D01*
X127501867Y-104825018D01*
X127556807Y-104768777D01*
X127623605Y-104701104D01*
X127703399Y-104620785D01*
X127797325Y-104526602D01*
X127904248Y-104419612D01*
X128012811Y-104311099D01*
X128106312Y-104217803D01*
X128185984Y-104138579D01*
X128253059Y-104072281D01*
X128308767Y-104017764D01*
X128354342Y-103973884D01*
X128391014Y-103939493D01*
X128420016Y-103913448D01*
X128442579Y-103894602D01*
X128459934Y-103881811D01*
X128473314Y-103873928D01*
X128483951Y-103869809D01*
X128493076Y-103868309D01*
X128497265Y-103868182D01*
X128542624Y-103878574D01*
G36*
X128542624Y-103878574D02*
G01*
X128577504Y-103906565D01*
X128597128Y-103947379D01*
X128599727Y-103970644D01*
X128599074Y-103979481D01*
X128596350Y-103989241D01*
X128590410Y-104001156D01*
X128580110Y-104016456D01*
X128564302Y-104036375D01*
X128541843Y-104062144D01*
X128511587Y-104094994D01*
X128472388Y-104136157D01*
X128423101Y-104186865D01*
X128362580Y-104248350D01*
X128289681Y-104321844D01*
X128203258Y-104408577D01*
X128102166Y-104509783D01*
X128048297Y-104563661D01*
X127939340Y-104672549D01*
X127845438Y-104766190D01*
X127765375Y-104845720D01*
X127697936Y-104912277D01*
X127641905Y-104966998D01*
X127596066Y-105011020D01*
X127559203Y-105045479D01*
X127530100Y-105071513D01*
X127507541Y-105090258D01*
X127490311Y-105102851D01*
X127477194Y-105110430D01*
X127466973Y-105114131D01*
X127458591Y-105115091D01*
X127419562Y-105106235D01*
X127386566Y-105081343D01*
X127359963Y-105044695D01*
X127352818Y-105009318D01*
X127353821Y-105000758D01*
X127357586Y-104990492D01*
X127365251Y-104977307D01*
X127377953Y-104959985D01*
X127396829Y-104937311D01*
X127423015Y-104908069D01*
X127457649Y-104871043D01*
X127501867Y-104825018D01*
X127556807Y-104768777D01*
X127623605Y-104701104D01*
X127703399Y-104620785D01*
X127797325Y-104526602D01*
X127904248Y-104419612D01*
X128012811Y-104311099D01*
X128106312Y-104217803D01*
X128185984Y-104138579D01*
X128253059Y-104072281D01*
X128308767Y-104017764D01*
X128354342Y-103973884D01*
X128391014Y-103939493D01*
X128420016Y-103913448D01*
X128442579Y-103894602D01*
X128459934Y-103881811D01*
X128473314Y-103873928D01*
X128483951Y-103869809D01*
X128493076Y-103868309D01*
X128497265Y-103868182D01*
X128542624Y-103878574D01*
G37*
X136669433Y-103840669D02*
X136701977Y-103861419D01*
X136715253Y-103877991D01*
X136718600Y-103895288D01*
X136721415Y-103933864D01*
X136723704Y-103994020D01*
X136725473Y-104076059D01*
X136726729Y-104180279D01*
X136727478Y-104306983D01*
X136727727Y-104456471D01*
X136727727Y-105012232D01*
X136699388Y-105040570D01*
X136660884Y-105064432D01*
X136616852Y-105069540D01*
X136574719Y-105055967D01*
X136553672Y-105039133D01*
X136525682Y-105009356D01*
X136519909Y-104594556D01*
X136514136Y-104179755D01*
X136069693Y-104624332D01*
X135973118Y-104720885D01*
X135891434Y-104802355D01*
X135823236Y-104870023D01*
X135767120Y-104925166D01*
X135721681Y-104969064D01*
X135685515Y-105002994D01*
X135657217Y-105028236D01*
X135635383Y-105046068D01*
X135618609Y-105057769D01*
X135605490Y-105064618D01*
X135594621Y-105067892D01*
X135584598Y-105068872D01*
X135581372Y-105068909D01*
X135538318Y-105061133D01*
X135509157Y-105040570D01*
X135486177Y-105005200D01*
X135480644Y-104968411D01*
X135481054Y-104959298D01*
X135483134Y-104949764D01*
X135488044Y-104938565D01*
X135496949Y-104924457D01*
X135511008Y-104906196D01*
X135531386Y-104882538D01*
X135559243Y-104852239D01*
X135595741Y-104814056D01*
X135642044Y-104766745D01*
X135699312Y-104709061D01*
X135768708Y-104639761D01*
X135851395Y-104557601D01*
X135948533Y-104461338D01*
X136026167Y-104384484D01*
X136119890Y-104291944D01*
X136209313Y-104204082D01*
X136293006Y-104122274D01*
X136369540Y-104047897D01*
X136437486Y-103982328D01*
X136495415Y-103926943D01*
X136541898Y-103883119D01*
X136575505Y-103852234D01*
X136594807Y-103835663D01*
X136598393Y-103833264D01*
X136631559Y-103830004D01*
X136669433Y-103840669D01*
G36*
X136669433Y-103840669D02*
G01*
X136701977Y-103861419D01*
X136715253Y-103877991D01*
X136718600Y-103895288D01*
X136721415Y-103933864D01*
X136723704Y-103994020D01*
X136725473Y-104076059D01*
X136726729Y-104180279D01*
X136727478Y-104306983D01*
X136727727Y-104456471D01*
X136727727Y-105012232D01*
X136699388Y-105040570D01*
X136660884Y-105064432D01*
X136616852Y-105069540D01*
X136574719Y-105055967D01*
X136553672Y-105039133D01*
X136525682Y-105009356D01*
X136519909Y-104594556D01*
X136514136Y-104179755D01*
X136069693Y-104624332D01*
X135973118Y-104720885D01*
X135891434Y-104802355D01*
X135823236Y-104870023D01*
X135767120Y-104925166D01*
X135721681Y-104969064D01*
X135685515Y-105002994D01*
X135657217Y-105028236D01*
X135635383Y-105046068D01*
X135618609Y-105057769D01*
X135605490Y-105064618D01*
X135594621Y-105067892D01*
X135584598Y-105068872D01*
X135581372Y-105068909D01*
X135538318Y-105061133D01*
X135509157Y-105040570D01*
X135486177Y-105005200D01*
X135480644Y-104968411D01*
X135481054Y-104959298D01*
X135483134Y-104949764D01*
X135488044Y-104938565D01*
X135496949Y-104924457D01*
X135511008Y-104906196D01*
X135531386Y-104882538D01*
X135559243Y-104852239D01*
X135595741Y-104814056D01*
X135642044Y-104766745D01*
X135699312Y-104709061D01*
X135768708Y-104639761D01*
X135851395Y-104557601D01*
X135948533Y-104461338D01*
X136026167Y-104384484D01*
X136119890Y-104291944D01*
X136209313Y-104204082D01*
X136293006Y-104122274D01*
X136369540Y-104047897D01*
X136437486Y-103982328D01*
X136495415Y-103926943D01*
X136541898Y-103883119D01*
X136575505Y-103852234D01*
X136594807Y-103835663D01*
X136598393Y-103833264D01*
X136631559Y-103830004D01*
X136669433Y-103840669D01*
G37*
X131100867Y-103823429D02*
X131188024Y-103823991D01*
X131207129Y-103824182D01*
X131545849Y-103827773D01*
X131573697Y-103860167D01*
X131595527Y-103897951D01*
X131601546Y-103929159D01*
X131600315Y-103937638D01*
X131595871Y-103948320D01*
X131587086Y-103962408D01*
X131572831Y-103981106D01*
X131551980Y-104005618D01*
X131523403Y-104037147D01*
X131485973Y-104076898D01*
X131438561Y-104126074D01*
X131380041Y-104185878D01*
X131309283Y-104257516D01*
X131225160Y-104342190D01*
X131126544Y-104441104D01*
X131050413Y-104517333D01*
X130942065Y-104625731D01*
X130848779Y-104718921D01*
X130769316Y-104798052D01*
X130702437Y-104864272D01*
X130646904Y-104918728D01*
X130601477Y-104962569D01*
X130564919Y-104996942D01*
X130535990Y-105022996D01*
X130513452Y-105041878D01*
X130496067Y-105054737D01*
X130482595Y-105062721D01*
X130471798Y-105066977D01*
X130462438Y-105068654D01*
X130455297Y-105068909D01*
X130412291Y-105061202D01*
X130382975Y-105040570D01*
X130358804Y-105001634D01*
X130354636Y-104974524D01*
X130355771Y-104965221D01*
X130360008Y-104954073D01*
X130368598Y-104939723D01*
X130382793Y-104920815D01*
X130403842Y-104895993D01*
X130432996Y-104863900D01*
X130471506Y-104823180D01*
X130520622Y-104772477D01*
X130581596Y-104710435D01*
X130655677Y-104635698D01*
X130744117Y-104546909D01*
X130807599Y-104483317D01*
X131260561Y-104029818D01*
X130803133Y-104029818D01*
X130769385Y-103996070D01*
X130743094Y-103956585D01*
X130737388Y-103915460D01*
X130750617Y-103877299D01*
X130781135Y-103846705D01*
X130827295Y-103828280D01*
X130829596Y-103827833D01*
X130850897Y-103826097D01*
X130891980Y-103824756D01*
X130949540Y-103823843D01*
X131020271Y-103823390D01*
X131100867Y-103823429D01*
G36*
X131100867Y-103823429D02*
G01*
X131188024Y-103823991D01*
X131207129Y-103824182D01*
X131545849Y-103827773D01*
X131573697Y-103860167D01*
X131595527Y-103897951D01*
X131601546Y-103929159D01*
X131600315Y-103937638D01*
X131595871Y-103948320D01*
X131587086Y-103962408D01*
X131572831Y-103981106D01*
X131551980Y-104005618D01*
X131523403Y-104037147D01*
X131485973Y-104076898D01*
X131438561Y-104126074D01*
X131380041Y-104185878D01*
X131309283Y-104257516D01*
X131225160Y-104342190D01*
X131126544Y-104441104D01*
X131050413Y-104517333D01*
X130942065Y-104625731D01*
X130848779Y-104718921D01*
X130769316Y-104798052D01*
X130702437Y-104864272D01*
X130646904Y-104918728D01*
X130601477Y-104962569D01*
X130564919Y-104996942D01*
X130535990Y-105022996D01*
X130513452Y-105041878D01*
X130496067Y-105054737D01*
X130482595Y-105062721D01*
X130471798Y-105066977D01*
X130462438Y-105068654D01*
X130455297Y-105068909D01*
X130412291Y-105061202D01*
X130382975Y-105040570D01*
X130358804Y-105001634D01*
X130354636Y-104974524D01*
X130355771Y-104965221D01*
X130360008Y-104954073D01*
X130368598Y-104939723D01*
X130382793Y-104920815D01*
X130403842Y-104895993D01*
X130432996Y-104863900D01*
X130471506Y-104823180D01*
X130520622Y-104772477D01*
X130581596Y-104710435D01*
X130655677Y-104635698D01*
X130744117Y-104546909D01*
X130807599Y-104483317D01*
X131260561Y-104029818D01*
X130803133Y-104029818D01*
X130769385Y-103996070D01*
X130743094Y-103956585D01*
X130737388Y-103915460D01*
X130750617Y-103877299D01*
X130781135Y-103846705D01*
X130827295Y-103828280D01*
X130829596Y-103827833D01*
X130850897Y-103826097D01*
X130891980Y-103824756D01*
X130949540Y-103823843D01*
X131020271Y-103823390D01*
X131100867Y-103823429D01*
G37*
X135211543Y-103823812D02*
X135299986Y-103824291D01*
X135829199Y-103827773D01*
X135857054Y-103860167D01*
X135881057Y-103902254D01*
X135882159Y-103944779D01*
X135860439Y-103985922D01*
X135851161Y-103996070D01*
X135817413Y-104029818D01*
X134845818Y-104029818D01*
X134845818Y-104727431D01*
X135039974Y-104534488D01*
X135105570Y-104469710D01*
X135157447Y-104419941D01*
X135197994Y-104383648D01*
X135229598Y-104359296D01*
X135254648Y-104345350D01*
X135275534Y-104340278D01*
X135294643Y-104342543D01*
X135314365Y-104350612D01*
X135320918Y-104354020D01*
X135343085Y-104375338D01*
X135361137Y-104408267D01*
X135370722Y-104442832D01*
X135369350Y-104465014D01*
X135359786Y-104477775D01*
X135336132Y-104504493D01*
X135300664Y-104542838D01*
X135255662Y-104590480D01*
X135203402Y-104645088D01*
X135146162Y-104704333D01*
X135086221Y-104765884D01*
X135025855Y-104827411D01*
X134967342Y-104886584D01*
X134912960Y-104941073D01*
X134864987Y-104988548D01*
X134825700Y-105026678D01*
X134797378Y-105053134D01*
X134782318Y-105065571D01*
X134748342Y-105078291D01*
X134711314Y-105073237D01*
X134699849Y-105069006D01*
X134686106Y-105063296D01*
X134674567Y-105056911D01*
X134665037Y-105047918D01*
X134657326Y-105034387D01*
X134651241Y-105014387D01*
X134646589Y-104985985D01*
X134643177Y-104947251D01*
X134640815Y-104896254D01*
X134639308Y-104831061D01*
X134638466Y-104749742D01*
X134638094Y-104650364D01*
X134638002Y-104530998D01*
X134638000Y-104448134D01*
X134638000Y-103890223D01*
X134665574Y-103862650D01*
X134697273Y-103840652D01*
X134731960Y-103827943D01*
X134751294Y-103826549D01*
X134791207Y-103825397D01*
X134849187Y-103824501D01*
X134922722Y-103823879D01*
X135009300Y-103823546D01*
X135106411Y-103823518D01*
X135211543Y-103823812D01*
G36*
X135211543Y-103823812D02*
G01*
X135299986Y-103824291D01*
X135829199Y-103827773D01*
X135857054Y-103860167D01*
X135881057Y-103902254D01*
X135882159Y-103944779D01*
X135860439Y-103985922D01*
X135851161Y-103996070D01*
X135817413Y-104029818D01*
X134845818Y-104029818D01*
X134845818Y-104727431D01*
X135039974Y-104534488D01*
X135105570Y-104469710D01*
X135157447Y-104419941D01*
X135197994Y-104383648D01*
X135229598Y-104359296D01*
X135254648Y-104345350D01*
X135275534Y-104340278D01*
X135294643Y-104342543D01*
X135314365Y-104350612D01*
X135320918Y-104354020D01*
X135343085Y-104375338D01*
X135361137Y-104408267D01*
X135370722Y-104442832D01*
X135369350Y-104465014D01*
X135359786Y-104477775D01*
X135336132Y-104504493D01*
X135300664Y-104542838D01*
X135255662Y-104590480D01*
X135203402Y-104645088D01*
X135146162Y-104704333D01*
X135086221Y-104765884D01*
X135025855Y-104827411D01*
X134967342Y-104886584D01*
X134912960Y-104941073D01*
X134864987Y-104988548D01*
X134825700Y-105026678D01*
X134797378Y-105053134D01*
X134782318Y-105065571D01*
X134748342Y-105078291D01*
X134711314Y-105073237D01*
X134699849Y-105069006D01*
X134686106Y-105063296D01*
X134674567Y-105056911D01*
X134665037Y-105047918D01*
X134657326Y-105034387D01*
X134651241Y-105014387D01*
X134646589Y-104985985D01*
X134643177Y-104947251D01*
X134640815Y-104896254D01*
X134639308Y-104831061D01*
X134638466Y-104749742D01*
X134638094Y-104650364D01*
X134638002Y-104530998D01*
X134638000Y-104448134D01*
X134638000Y-103890223D01*
X134665574Y-103862650D01*
X134697273Y-103840652D01*
X134731960Y-103827943D01*
X134751294Y-103826549D01*
X134791207Y-103825397D01*
X134849187Y-103824501D01*
X134922722Y-103823879D01*
X135009300Y-103823546D01*
X135106411Y-103823518D01*
X135211543Y-103823812D01*
G37*
X139613456Y-103835054D02*
X139639552Y-103847703D01*
X139658456Y-103866976D01*
X139671228Y-103896286D01*
X139678924Y-103939045D01*
X139682602Y-103998666D01*
X139683364Y-104060539D01*
X139683364Y-104207860D01*
X139871768Y-104020703D01*
X139933705Y-103959542D01*
X139981858Y-103913044D01*
X140018520Y-103879297D01*
X140045983Y-103856387D01*
X140066538Y-103842400D01*
X140082478Y-103835424D01*
X140095961Y-103833546D01*
X140127882Y-103835808D01*
X140150437Y-103840717D01*
X140173200Y-103859843D01*
X140190724Y-103892402D01*
X140198761Y-103928757D01*
X140197476Y-103947455D01*
X140186400Y-103966827D01*
X140158547Y-104001288D01*
X140114275Y-104050445D01*
X140053940Y-104113908D01*
X139977897Y-104191283D01*
X139954408Y-104214819D01*
X139718239Y-104450778D01*
X139960574Y-104694071D01*
X140032428Y-104766393D01*
X140089358Y-104824533D01*
X140132809Y-104870595D01*
X140164228Y-104906681D01*
X140185061Y-104934894D01*
X140196754Y-104957337D01*
X140200753Y-104976113D01*
X140198505Y-104993325D01*
X140191455Y-105011076D01*
X140186018Y-105021902D01*
X140165366Y-105050750D01*
X140137139Y-105065136D01*
X140095961Y-105068909D01*
X140082332Y-105066989D01*
X140066357Y-105059951D01*
X140045743Y-105045884D01*
X140018199Y-105022874D01*
X139981432Y-104989007D01*
X139933151Y-104942371D01*
X139871768Y-104881752D01*
X139683364Y-104694595D01*
X139683364Y-104841916D01*
X139682022Y-104920644D01*
X139677098Y-104979210D01*
X139667241Y-105020436D01*
X139651101Y-105047143D01*
X139627329Y-105062154D01*
X139594573Y-105068289D01*
X139574750Y-105068909D01*
X139533314Y-105058360D01*
X139509308Y-105039125D01*
X139481318Y-105009340D01*
X139477793Y-104476284D01*
X139477079Y-104330681D01*
X139477021Y-104207408D01*
X139477631Y-104105714D01*
X139478923Y-104024845D01*
X139480907Y-103964051D01*
X139483596Y-103922580D01*
X139487003Y-103899679D01*
X139487184Y-103899037D01*
X139509561Y-103858371D01*
X139545282Y-103834357D01*
X139589467Y-103829468D01*
X139613456Y-103835054D01*
G36*
X139613456Y-103835054D02*
G01*
X139639552Y-103847703D01*
X139658456Y-103866976D01*
X139671228Y-103896286D01*
X139678924Y-103939045D01*
X139682602Y-103998666D01*
X139683364Y-104060539D01*
X139683364Y-104207860D01*
X139871768Y-104020703D01*
X139933705Y-103959542D01*
X139981858Y-103913044D01*
X140018520Y-103879297D01*
X140045983Y-103856387D01*
X140066538Y-103842400D01*
X140082478Y-103835424D01*
X140095961Y-103833546D01*
X140127882Y-103835808D01*
X140150437Y-103840717D01*
X140173200Y-103859843D01*
X140190724Y-103892402D01*
X140198761Y-103928757D01*
X140197476Y-103947455D01*
X140186400Y-103966827D01*
X140158547Y-104001288D01*
X140114275Y-104050445D01*
X140053940Y-104113908D01*
X139977897Y-104191283D01*
X139954408Y-104214819D01*
X139718239Y-104450778D01*
X139960574Y-104694071D01*
X140032428Y-104766393D01*
X140089358Y-104824533D01*
X140132809Y-104870595D01*
X140164228Y-104906681D01*
X140185061Y-104934894D01*
X140196754Y-104957337D01*
X140200753Y-104976113D01*
X140198505Y-104993325D01*
X140191455Y-105011076D01*
X140186018Y-105021902D01*
X140165366Y-105050750D01*
X140137139Y-105065136D01*
X140095961Y-105068909D01*
X140082332Y-105066989D01*
X140066357Y-105059951D01*
X140045743Y-105045884D01*
X140018199Y-105022874D01*
X139981432Y-104989007D01*
X139933151Y-104942371D01*
X139871768Y-104881752D01*
X139683364Y-104694595D01*
X139683364Y-104841916D01*
X139682022Y-104920644D01*
X139677098Y-104979210D01*
X139667241Y-105020436D01*
X139651101Y-105047143D01*
X139627329Y-105062154D01*
X139594573Y-105068289D01*
X139574750Y-105068909D01*
X139533314Y-105058360D01*
X139509308Y-105039125D01*
X139481318Y-105009340D01*
X139477793Y-104476284D01*
X139477079Y-104330681D01*
X139477021Y-104207408D01*
X139477631Y-104105714D01*
X139478923Y-104024845D01*
X139480907Y-103964051D01*
X139483596Y-103922580D01*
X139487003Y-103899679D01*
X139487184Y-103899037D01*
X139509561Y-103858371D01*
X139545282Y-103834357D01*
X139589467Y-103829468D01*
X139613456Y-103835054D01*
G37*
X134252227Y-103860167D02*
X134274205Y-103898314D01*
X134280091Y-103929339D01*
X134278536Y-103941611D01*
X134272728Y-103955865D01*
X134260952Y-103974079D01*
X134241495Y-103998233D01*
X134212642Y-104030306D01*
X134172679Y-104072277D01*
X134119892Y-104126125D01*
X134052567Y-104193830D01*
X134040876Y-104205535D01*
X133801661Y-104444954D01*
X134040876Y-104685910D01*
X134109962Y-104755678D01*
X134164379Y-104811228D01*
X134205858Y-104854596D01*
X134236131Y-104887820D01*
X134256928Y-104912937D01*
X134269981Y-104931984D01*
X134277019Y-104946999D01*
X134279774Y-104960018D01*
X134280091Y-104967467D01*
X134270969Y-105015917D01*
X134245076Y-105049944D01*
X134204620Y-105067214D01*
X134184104Y-105068909D01*
X134169831Y-105068459D01*
X134156430Y-105065946D01*
X134141806Y-105059626D01*
X134123862Y-105047757D01*
X134100503Y-105028593D01*
X134069633Y-105000393D01*
X134029158Y-104961411D01*
X133976981Y-104909905D01*
X133911007Y-104844131D01*
X133896305Y-104829444D01*
X133656636Y-104589979D01*
X133416967Y-104829444D01*
X133347523Y-104898652D01*
X133292249Y-104953149D01*
X133249110Y-104994675D01*
X133216071Y-105024968D01*
X133191097Y-105045767D01*
X133172151Y-105058811D01*
X133157200Y-105065839D01*
X133144208Y-105068589D01*
X133136673Y-105068909D01*
X133101109Y-105063866D01*
X133071474Y-105051689D01*
X133070848Y-105051259D01*
X133050218Y-105025641D01*
X133037798Y-104989350D01*
X133036314Y-104953168D01*
X133041744Y-104936105D01*
X133051751Y-104924494D01*
X133076581Y-104898152D01*
X133114698Y-104858644D01*
X133164566Y-104807535D01*
X133224649Y-104746392D01*
X133293410Y-104676780D01*
X133369314Y-104600263D01*
X133450824Y-104518408D01*
X133495833Y-104473335D01*
X133939147Y-104029818D01*
X133716500Y-104029818D01*
X133624898Y-104029255D01*
X133553805Y-104026950D01*
X133500654Y-104021982D01*
X133462879Y-104013427D01*
X133437912Y-104000365D01*
X133423187Y-103981872D01*
X133416137Y-103957027D01*
X133414194Y-103924906D01*
X133414182Y-103921205D01*
X133424724Y-103879784D01*
X133443976Y-103855763D01*
X133473769Y-103827773D01*
X134224363Y-103827773D01*
X134252227Y-103860167D01*
G36*
X134252227Y-103860167D02*
G01*
X134274205Y-103898314D01*
X134280091Y-103929339D01*
X134278536Y-103941611D01*
X134272728Y-103955865D01*
X134260952Y-103974079D01*
X134241495Y-103998233D01*
X134212642Y-104030306D01*
X134172679Y-104072277D01*
X134119892Y-104126125D01*
X134052567Y-104193830D01*
X134040876Y-104205535D01*
X133801661Y-104444954D01*
X134040876Y-104685910D01*
X134109962Y-104755678D01*
X134164379Y-104811228D01*
X134205858Y-104854596D01*
X134236131Y-104887820D01*
X134256928Y-104912937D01*
X134269981Y-104931984D01*
X134277019Y-104946999D01*
X134279774Y-104960018D01*
X134280091Y-104967467D01*
X134270969Y-105015917D01*
X134245076Y-105049944D01*
X134204620Y-105067214D01*
X134184104Y-105068909D01*
X134169831Y-105068459D01*
X134156430Y-105065946D01*
X134141806Y-105059626D01*
X134123862Y-105047757D01*
X134100503Y-105028593D01*
X134069633Y-105000393D01*
X134029158Y-104961411D01*
X133976981Y-104909905D01*
X133911007Y-104844131D01*
X133896305Y-104829444D01*
X133656636Y-104589979D01*
X133416967Y-104829444D01*
X133347523Y-104898652D01*
X133292249Y-104953149D01*
X133249110Y-104994675D01*
X133216071Y-105024968D01*
X133191097Y-105045767D01*
X133172151Y-105058811D01*
X133157200Y-105065839D01*
X133144208Y-105068589D01*
X133136673Y-105068909D01*
X133101109Y-105063866D01*
X133071474Y-105051689D01*
X133070848Y-105051259D01*
X133050218Y-105025641D01*
X133037798Y-104989350D01*
X133036314Y-104953168D01*
X133041744Y-104936105D01*
X133051751Y-104924494D01*
X133076581Y-104898152D01*
X133114698Y-104858644D01*
X133164566Y-104807535D01*
X133224649Y-104746392D01*
X133293410Y-104676780D01*
X133369314Y-104600263D01*
X133450824Y-104518408D01*
X133495833Y-104473335D01*
X133939147Y-104029818D01*
X133716500Y-104029818D01*
X133624898Y-104029255D01*
X133553805Y-104026950D01*
X133500654Y-104021982D01*
X133462879Y-104013427D01*
X133437912Y-104000365D01*
X133423187Y-103981872D01*
X133416137Y-103957027D01*
X133414194Y-103924906D01*
X133414182Y-103921205D01*
X133424724Y-103879784D01*
X133443976Y-103855763D01*
X133473769Y-103827773D01*
X134224363Y-103827773D01*
X134252227Y-103860167D01*
G37*
X139023621Y-103835234D02*
X139053063Y-103857821D01*
X139055633Y-103860744D01*
X139083000Y-103892560D01*
X139083000Y-105012232D01*
X139054661Y-105040570D01*
X139017578Y-105064017D01*
X138975453Y-105070249D01*
X138935707Y-105059373D01*
X138910656Y-105038489D01*
X138904371Y-105029750D01*
X138899295Y-105019565D01*
X138895298Y-105005538D01*
X138892252Y-104985274D01*
X138890029Y-104956381D01*
X138888498Y-104916462D01*
X138887531Y-104863123D01*
X138887000Y-104793971D01*
X138886775Y-104706610D01*
X138886727Y-104598646D01*
X138886727Y-104593989D01*
X138886496Y-104498796D01*
X138885839Y-104411315D01*
X138884810Y-104334127D01*
X138883461Y-104269814D01*
X138881847Y-104220956D01*
X138880021Y-104190134D01*
X138878123Y-104179909D01*
X138868574Y-104187843D01*
X138844241Y-104210654D01*
X138806636Y-104246863D01*
X138757269Y-104294985D01*
X138697652Y-104353540D01*
X138629295Y-104421045D01*
X138553710Y-104496017D01*
X138472407Y-104576976D01*
X138422751Y-104626567D01*
X137975983Y-105073224D01*
X137620287Y-105076547D01*
X137517916Y-105077112D01*
X137427183Y-105076831D01*
X137350404Y-105075753D01*
X137289896Y-105073925D01*
X137247975Y-105071396D01*
X137227586Y-105068421D01*
X137211444Y-105063444D01*
X137197887Y-105058067D01*
X137186689Y-105050371D01*
X137177625Y-105038438D01*
X137170470Y-105020348D01*
X137164998Y-104994182D01*
X137160984Y-104958022D01*
X137158203Y-104909948D01*
X137156430Y-104848041D01*
X137155439Y-104770383D01*
X137155005Y-104675054D01*
X137154903Y-104560135D01*
X137154909Y-104449302D01*
X137154909Y-103892560D01*
X137181211Y-103861983D01*
X137217041Y-103836278D01*
X137259576Y-103829387D01*
X137301745Y-103841591D01*
X137322033Y-103856369D01*
X137351182Y-103883752D01*
X137351182Y-104872211D01*
X137888046Y-104878409D01*
X138415720Y-104353668D01*
X138521843Y-104248183D01*
X138612897Y-104157843D01*
X138690153Y-104081477D01*
X138754883Y-104017915D01*
X138808358Y-103965987D01*
X138851849Y-103924523D01*
X138886628Y-103892352D01*
X138913966Y-103868304D01*
X138935135Y-103851209D01*
X138951406Y-103839897D01*
X138964051Y-103833198D01*
X138974340Y-103829941D01*
X138983546Y-103828956D01*
X138985830Y-103828927D01*
X139023621Y-103835234D01*
G36*
X139023621Y-103835234D02*
G01*
X139053063Y-103857821D01*
X139055633Y-103860744D01*
X139083000Y-103892560D01*
X139083000Y-105012232D01*
X139054661Y-105040570D01*
X139017578Y-105064017D01*
X138975453Y-105070249D01*
X138935707Y-105059373D01*
X138910656Y-105038489D01*
X138904371Y-105029750D01*
X138899295Y-105019565D01*
X138895298Y-105005538D01*
X138892252Y-104985274D01*
X138890029Y-104956381D01*
X138888498Y-104916462D01*
X138887531Y-104863123D01*
X138887000Y-104793971D01*
X138886775Y-104706610D01*
X138886727Y-104598646D01*
X138886727Y-104593989D01*
X138886496Y-104498796D01*
X138885839Y-104411315D01*
X138884810Y-104334127D01*
X138883461Y-104269814D01*
X138881847Y-104220956D01*
X138880021Y-104190134D01*
X138878123Y-104179909D01*
X138868574Y-104187843D01*
X138844241Y-104210654D01*
X138806636Y-104246863D01*
X138757269Y-104294985D01*
X138697652Y-104353540D01*
X138629295Y-104421045D01*
X138553710Y-104496017D01*
X138472407Y-104576976D01*
X138422751Y-104626567D01*
X137975983Y-105073224D01*
X137620287Y-105076547D01*
X137517916Y-105077112D01*
X137427183Y-105076831D01*
X137350404Y-105075753D01*
X137289896Y-105073925D01*
X137247975Y-105071396D01*
X137227586Y-105068421D01*
X137211444Y-105063444D01*
X137197887Y-105058067D01*
X137186689Y-105050371D01*
X137177625Y-105038438D01*
X137170470Y-105020348D01*
X137164998Y-104994182D01*
X137160984Y-104958022D01*
X137158203Y-104909948D01*
X137156430Y-104848041D01*
X137155439Y-104770383D01*
X137155005Y-104675054D01*
X137154903Y-104560135D01*
X137154909Y-104449302D01*
X137154909Y-103892560D01*
X137181211Y-103861983D01*
X137217041Y-103836278D01*
X137259576Y-103829387D01*
X137301745Y-103841591D01*
X137322033Y-103856369D01*
X137351182Y-103883752D01*
X137351182Y-104872211D01*
X137888046Y-104878409D01*
X138415720Y-104353668D01*
X138521843Y-104248183D01*
X138612897Y-104157843D01*
X138690153Y-104081477D01*
X138754883Y-104017915D01*
X138808358Y-103965987D01*
X138851849Y-103924523D01*
X138886628Y-103892352D01*
X138913966Y-103868304D01*
X138935135Y-103851209D01*
X138951406Y-103839897D01*
X138964051Y-103833198D01*
X138974340Y-103829941D01*
X138983546Y-103828956D01*
X138985830Y-103828927D01*
X139023621Y-103835234D01*
G37*
X142796094Y-103840767D02*
X142819451Y-103860744D01*
X142830530Y-103874963D01*
X142838136Y-103890280D01*
X142842917Y-103911133D01*
X142845525Y-103941966D01*
X142846609Y-103987217D01*
X142846818Y-104047780D01*
X142847433Y-104104627D01*
X142849116Y-104152127D01*
X142851630Y-104186067D01*
X142854736Y-104202230D01*
X142855613Y-104203000D01*
X142865956Y-104195173D01*
X142890102Y-104173239D01*
X142925626Y-104139515D01*
X142970102Y-104096321D01*
X143021104Y-104045974D01*
X143048864Y-104018273D01*
X143109448Y-103957913D01*
X143156341Y-103912164D01*
X143191916Y-103879056D01*
X143218551Y-103856617D01*
X143238620Y-103842875D01*
X143254501Y-103835860D01*
X143268568Y-103833600D01*
X143271503Y-103833546D01*
X143313877Y-103843973D01*
X143346780Y-103871563D01*
X143364661Y-103910778D01*
X143366364Y-103928170D01*
X143364984Y-103940576D01*
X143359696Y-103954551D01*
X143348773Y-103972096D01*
X143330492Y-103995211D01*
X143303126Y-104025897D01*
X143264951Y-104066153D01*
X143214242Y-104117979D01*
X143149273Y-104183377D01*
X143127149Y-104205535D01*
X142887934Y-104444954D01*
X143127149Y-104685910D01*
X143196054Y-104755470D01*
X143250327Y-104810802D01*
X143291702Y-104853965D01*
X143321917Y-104887017D01*
X143342706Y-104912017D01*
X143355807Y-104931024D01*
X143362956Y-104946096D01*
X143365887Y-104959290D01*
X143366364Y-104969549D01*
X143356534Y-105014357D01*
X143330067Y-105048414D01*
X143291497Y-105066924D01*
X143272430Y-105068909D01*
X143258558Y-105067237D01*
X143242955Y-105060920D01*
X143223267Y-105048012D01*
X143197140Y-105026565D01*
X143162221Y-104994629D01*
X143116155Y-104950258D01*
X143056588Y-104891503D01*
X143049215Y-104884182D01*
X142995523Y-104831190D01*
X142947184Y-104784136D01*
X142906617Y-104745323D01*
X142876245Y-104717054D01*
X142858488Y-104701632D01*
X142855037Y-104699455D01*
X142852019Y-104710295D01*
X142849499Y-104739996D01*
X142847703Y-104784332D01*
X142846855Y-104839074D01*
X142846818Y-104853761D01*
X142846488Y-104917471D01*
X142845116Y-104962527D01*
X142842127Y-104993360D01*
X142836948Y-105014402D01*
X142829003Y-105030085D01*
X142822889Y-105038489D01*
X142790365Y-105062942D01*
X142749541Y-105070373D01*
X142707837Y-105060674D01*
X142678884Y-105040570D01*
X142650546Y-105012232D01*
X142650546Y-103892560D01*
X142677913Y-103860744D01*
X142714080Y-103834233D01*
X142755616Y-103827575D01*
X142796094Y-103840767D01*
G36*
X142796094Y-103840767D02*
G01*
X142819451Y-103860744D01*
X142830530Y-103874963D01*
X142838136Y-103890280D01*
X142842917Y-103911133D01*
X142845525Y-103941966D01*
X142846609Y-103987217D01*
X142846818Y-104047780D01*
X142847433Y-104104627D01*
X142849116Y-104152127D01*
X142851630Y-104186067D01*
X142854736Y-104202230D01*
X142855613Y-104203000D01*
X142865956Y-104195173D01*
X142890102Y-104173239D01*
X142925626Y-104139515D01*
X142970102Y-104096321D01*
X143021104Y-104045974D01*
X143048864Y-104018273D01*
X143109448Y-103957913D01*
X143156341Y-103912164D01*
X143191916Y-103879056D01*
X143218551Y-103856617D01*
X143238620Y-103842875D01*
X143254501Y-103835860D01*
X143268568Y-103833600D01*
X143271503Y-103833546D01*
X143313877Y-103843973D01*
X143346780Y-103871563D01*
X143364661Y-103910778D01*
X143366364Y-103928170D01*
X143364984Y-103940576D01*
X143359696Y-103954551D01*
X143348773Y-103972096D01*
X143330492Y-103995211D01*
X143303126Y-104025897D01*
X143264951Y-104066153D01*
X143214242Y-104117979D01*
X143149273Y-104183377D01*
X143127149Y-104205535D01*
X142887934Y-104444954D01*
X143127149Y-104685910D01*
X143196054Y-104755470D01*
X143250327Y-104810802D01*
X143291702Y-104853965D01*
X143321917Y-104887017D01*
X143342706Y-104912017D01*
X143355807Y-104931024D01*
X143362956Y-104946096D01*
X143365887Y-104959290D01*
X143366364Y-104969549D01*
X143356534Y-105014357D01*
X143330067Y-105048414D01*
X143291497Y-105066924D01*
X143272430Y-105068909D01*
X143258558Y-105067237D01*
X143242955Y-105060920D01*
X143223267Y-105048012D01*
X143197140Y-105026565D01*
X143162221Y-104994629D01*
X143116155Y-104950258D01*
X143056588Y-104891503D01*
X143049215Y-104884182D01*
X142995523Y-104831190D01*
X142947184Y-104784136D01*
X142906617Y-104745323D01*
X142876245Y-104717054D01*
X142858488Y-104701632D01*
X142855037Y-104699455D01*
X142852019Y-104710295D01*
X142849499Y-104739996D01*
X142847703Y-104784332D01*
X142846855Y-104839074D01*
X142846818Y-104853761D01*
X142846488Y-104917471D01*
X142845116Y-104962527D01*
X142842127Y-104993360D01*
X142836948Y-105014402D01*
X142829003Y-105030085D01*
X142822889Y-105038489D01*
X142790365Y-105062942D01*
X142749541Y-105070373D01*
X142707837Y-105060674D01*
X142678884Y-105040570D01*
X142650546Y-105012232D01*
X142650546Y-103892560D01*
X142677913Y-103860744D01*
X142714080Y-103834233D01*
X142755616Y-103827575D01*
X142796094Y-103840767D01*
G37*
X130427946Y-103839259D02*
X130460745Y-103867493D01*
X130479078Y-103909491D01*
X130481636Y-103934955D01*
X130481051Y-103943919D01*
X130478526Y-103953641D01*
X130472910Y-103965362D01*
X130463051Y-103980325D01*
X130447795Y-103999771D01*
X130425991Y-104024942D01*
X130396487Y-104057080D01*
X130358130Y-104097427D01*
X130309768Y-104147225D01*
X130250248Y-104207714D01*
X130178419Y-104280138D01*
X130093128Y-104365737D01*
X129993222Y-104465754D01*
X129935857Y-104523130D01*
X129827930Y-104631009D01*
X129735058Y-104723681D01*
X129655999Y-104802297D01*
X129589514Y-104868008D01*
X129534360Y-104921967D01*
X129489298Y-104965326D01*
X129453087Y-104999237D01*
X129424485Y-105024851D01*
X129402253Y-105043321D01*
X129385149Y-105055798D01*
X129371932Y-105063435D01*
X129361361Y-105067383D01*
X129352197Y-105068794D01*
X129347983Y-105068909D01*
X129320385Y-105068559D01*
X129297680Y-105066138D01*
X129279389Y-105059595D01*
X129265037Y-105046878D01*
X129254145Y-105025932D01*
X129246235Y-104994707D01*
X129240832Y-104951148D01*
X129237457Y-104893204D01*
X129235633Y-104818822D01*
X129234882Y-104725949D01*
X129234729Y-104612533D01*
X129234727Y-104581886D01*
X129234727Y-104174535D01*
X128786997Y-104621722D01*
X128690128Y-104718439D01*
X128608177Y-104800100D01*
X128539735Y-104867979D01*
X128483394Y-104923348D01*
X128437747Y-104967482D01*
X128401384Y-105001654D01*
X128372898Y-105027138D01*
X128350881Y-105045207D01*
X128333924Y-105057134D01*
X128320620Y-105064194D01*
X128309560Y-105067660D01*
X128299336Y-105068806D01*
X128292555Y-105068909D01*
X128251405Y-105063055D01*
X128221755Y-105043254D01*
X128220740Y-105042188D01*
X128199663Y-105003842D01*
X128195636Y-104970318D01*
X128196023Y-104960935D01*
X128197958Y-104951279D01*
X128202606Y-104940087D01*
X128211131Y-104926091D01*
X128224697Y-104908028D01*
X128244467Y-104884630D01*
X128271606Y-104854633D01*
X128307278Y-104816770D01*
X128352646Y-104769777D01*
X128408875Y-104712387D01*
X128477128Y-104643335D01*
X128558570Y-104561355D01*
X128654364Y-104465182D01*
X128729614Y-104389710D01*
X128828725Y-104290648D01*
X128921885Y-104198169D01*
X129007823Y-104113501D01*
X129085270Y-104037869D01*
X129152955Y-103972499D01*
X129209607Y-103918620D01*
X129253957Y-103877456D01*
X129284734Y-103850233D01*
X129300668Y-103838180D01*
X129301114Y-103837970D01*
X129345852Y-103829397D01*
X129386903Y-103840765D01*
X129418407Y-103869620D01*
X129429438Y-103891754D01*
X129433660Y-103916035D01*
X129437057Y-103962410D01*
X129439634Y-104031089D01*
X129441397Y-104122281D01*
X129442353Y-104236196D01*
X129442546Y-104328781D01*
X129442546Y-104728207D01*
X129892296Y-104278567D01*
X129989596Y-104181351D01*
X130071996Y-104099231D01*
X130140885Y-104030937D01*
X130197654Y-103975199D01*
X130243692Y-103930747D01*
X130280389Y-103896312D01*
X130309136Y-103870624D01*
X130331322Y-103852414D01*
X130348336Y-103840411D01*
X130361569Y-103833346D01*
X130372410Y-103829950D01*
X130382250Y-103828951D01*
X130384474Y-103828927D01*
X130427946Y-103839259D01*
G36*
X130427946Y-103839259D02*
G01*
X130460745Y-103867493D01*
X130479078Y-103909491D01*
X130481636Y-103934955D01*
X130481051Y-103943919D01*
X130478526Y-103953641D01*
X130472910Y-103965362D01*
X130463051Y-103980325D01*
X130447795Y-103999771D01*
X130425991Y-104024942D01*
X130396487Y-104057080D01*
X130358130Y-104097427D01*
X130309768Y-104147225D01*
X130250248Y-104207714D01*
X130178419Y-104280138D01*
X130093128Y-104365737D01*
X129993222Y-104465754D01*
X129935857Y-104523130D01*
X129827930Y-104631009D01*
X129735058Y-104723681D01*
X129655999Y-104802297D01*
X129589514Y-104868008D01*
X129534360Y-104921967D01*
X129489298Y-104965326D01*
X129453087Y-104999237D01*
X129424485Y-105024851D01*
X129402253Y-105043321D01*
X129385149Y-105055798D01*
X129371932Y-105063435D01*
X129361361Y-105067383D01*
X129352197Y-105068794D01*
X129347983Y-105068909D01*
X129320385Y-105068559D01*
X129297680Y-105066138D01*
X129279389Y-105059595D01*
X129265037Y-105046878D01*
X129254145Y-105025932D01*
X129246235Y-104994707D01*
X129240832Y-104951148D01*
X129237457Y-104893204D01*
X129235633Y-104818822D01*
X129234882Y-104725949D01*
X129234729Y-104612533D01*
X129234727Y-104581886D01*
X129234727Y-104174535D01*
X128786997Y-104621722D01*
X128690128Y-104718439D01*
X128608177Y-104800100D01*
X128539735Y-104867979D01*
X128483394Y-104923348D01*
X128437747Y-104967482D01*
X128401384Y-105001654D01*
X128372898Y-105027138D01*
X128350881Y-105045207D01*
X128333924Y-105057134D01*
X128320620Y-105064194D01*
X128309560Y-105067660D01*
X128299336Y-105068806D01*
X128292555Y-105068909D01*
X128251405Y-105063055D01*
X128221755Y-105043254D01*
X128220740Y-105042188D01*
X128199663Y-105003842D01*
X128195636Y-104970318D01*
X128196023Y-104960935D01*
X128197958Y-104951279D01*
X128202606Y-104940087D01*
X128211131Y-104926091D01*
X128224697Y-104908028D01*
X128244467Y-104884630D01*
X128271606Y-104854633D01*
X128307278Y-104816770D01*
X128352646Y-104769777D01*
X128408875Y-104712387D01*
X128477128Y-104643335D01*
X128558570Y-104561355D01*
X128654364Y-104465182D01*
X128729614Y-104389710D01*
X128828725Y-104290648D01*
X128921885Y-104198169D01*
X129007823Y-104113501D01*
X129085270Y-104037869D01*
X129152955Y-103972499D01*
X129209607Y-103918620D01*
X129253957Y-103877456D01*
X129284734Y-103850233D01*
X129300668Y-103838180D01*
X129301114Y-103837970D01*
X129345852Y-103829397D01*
X129386903Y-103840765D01*
X129418407Y-103869620D01*
X129429438Y-103891754D01*
X129433660Y-103916035D01*
X129437057Y-103962410D01*
X129439634Y-104031089D01*
X129441397Y-104122281D01*
X129442353Y-104236196D01*
X129442546Y-104328781D01*
X129442546Y-104728207D01*
X129892296Y-104278567D01*
X129989596Y-104181351D01*
X130071996Y-104099231D01*
X130140885Y-104030937D01*
X130197654Y-103975199D01*
X130243692Y-103930747D01*
X130280389Y-103896312D01*
X130309136Y-103870624D01*
X130331322Y-103852414D01*
X130348336Y-103840411D01*
X130361569Y-103833346D01*
X130372410Y-103829950D01*
X130382250Y-103828951D01*
X130384474Y-103828927D01*
X130427946Y-103839259D01*
G37*
D12*
X136475000Y-117412500D02*
X136475000Y-119697500D01*
X136475000Y-119697500D02*
X137945000Y-119697500D01*
X137945000Y-119697500D02*
X137945000Y-117412500D01*
D13*
X127680000Y-128260000D02*
X128680000Y-127260000D01*
X128680000Y-124260000D02*
X129380000Y-124260000D01*
X128680000Y-125260000D02*
X129380000Y-125260000D01*
X128680000Y-126260000D02*
X128680000Y-124260000D01*
X128680000Y-127260000D02*
X129680000Y-128260000D01*
X129380000Y-125260000D02*
X129980000Y-126260000D01*
X129680000Y-128260000D02*
X130680000Y-127260000D01*
X130580000Y-126260000D02*
X131280000Y-124260000D01*
X130680000Y-127260000D02*
X131680000Y-128260000D01*
X131280000Y-124260000D02*
X131980000Y-126260000D01*
X131680000Y-128260000D02*
X132680000Y-127260000D01*
X132680000Y-124260000D02*
X132980000Y-124260000D01*
X132680000Y-126260000D02*
X132680000Y-124260000D01*
X132680000Y-126260000D02*
X132980000Y-126260000D01*
X132680000Y-127260000D02*
X133680000Y-128260000D01*
X133680000Y-128260000D02*
X134680000Y-127260000D01*
X134480000Y-124260000D02*
X135480000Y-124260000D01*
X134480000Y-126260000D02*
X135480000Y-126260000D01*
X134680000Y-127260000D02*
X135680000Y-128260000D01*
X134980000Y-124260000D02*
X134980000Y-126260000D01*
X135680000Y-128260000D02*
X136680000Y-127260000D01*
X135880000Y-125260000D02*
X136480000Y-124260000D01*
X136480000Y-126260000D02*
X135880000Y-125260000D01*
X136480000Y-126260000D02*
X137480000Y-126260000D01*
X136680000Y-127260000D02*
X137680000Y-128260000D01*
X137480000Y-124260000D02*
X136480000Y-124260000D01*
X137480000Y-124260000D02*
X138080000Y-125260000D01*
X137680000Y-128260000D02*
X138680000Y-127260000D01*
X138080000Y-125260000D02*
X137480000Y-126260000D01*
X138680000Y-127260000D02*
X139680000Y-128260000D01*
X138780000Y-124260000D02*
X140180000Y-126260000D01*
X138780000Y-126260000D02*
X138780000Y-124260000D01*
X139680000Y-128260000D02*
X140680000Y-127260000D01*
X140180000Y-126260000D02*
X140180000Y-124260000D01*
X140680000Y-127260000D02*
X141680000Y-128260000D01*
X140780000Y-126260000D02*
X141780000Y-124260000D01*
X141680000Y-128260000D02*
X142680000Y-127260000D01*
X141780000Y-124260000D02*
X142780000Y-126260000D01*
X142680000Y-127260000D02*
X143680000Y-128260000D01*
X142780000Y-126260000D02*
X140780000Y-126260000D01*
X129380000Y-124260000D02*
G75*
G02*
X129380000Y-125260000I0J-500000D01*
G01*
X132980000Y-124260000D02*
G75*
G02*
X132980000Y-126260000I0J-1000000D01*
G01*
D12*
X131340000Y-113510000D02*
X132720000Y-113510000D01*
X131340000Y-114890000D02*
X131340000Y-113510000D01*
X131340000Y-116160000D02*
X131340000Y-118810000D01*
X131340000Y-116160000D02*
X134100000Y-116160000D01*
X131340000Y-118810000D02*
X134100000Y-118810000D01*
X134100000Y-116160000D02*
X134100000Y-118810000D01*
X137322164Y-112735000D02*
X137537836Y-112735000D01*
X137322164Y-113455000D02*
X137537836Y-113455000D01*
%LPC*%
D14*
X125060000Y-124290000D03*
G36*
G01*
X137466250Y-119437500D02*
X136953750Y-119437500D01*
G75*
G02*
X136735000Y-119218750I0J218750D01*
G01*
X136735000Y-118781250D01*
G75*
G02*
X136953750Y-118562500I218750J0D01*
G01*
X137466250Y-118562500D01*
G75*
G02*
X137685000Y-118781250I0J-218750D01*
G01*
X137685000Y-119218750D01*
G75*
G02*
X137466250Y-119437500I-218750J0D01*
G01*
G37*
G36*
G01*
X137466250Y-117862500D02*
X136953750Y-117862500D01*
G75*
G02*
X136735000Y-117643750I0J218750D01*
G01*
X136735000Y-117206250D01*
G75*
G02*
X136953750Y-116987500I218750J0D01*
G01*
X137466250Y-116987500D01*
G75*
G02*
X137685000Y-117206250I0J-218750D01*
G01*
X137685000Y-117643750D01*
G75*
G02*
X137466250Y-117862500I-218750J0D01*
G01*
G37*
D15*
X148900000Y-104620000D03*
D16*
X132720000Y-114890000D03*
D17*
X132720000Y-117430000D03*
D14*
X145680000Y-107850000D03*
G36*
G01*
X136670000Y-113265000D02*
X136670000Y-112925000D01*
G75*
G02*
X136810000Y-112785000I140000J0D01*
G01*
X137090000Y-112785000D01*
G75*
G02*
X137230000Y-112925000I0J-140000D01*
G01*
X137230000Y-113265000D01*
G75*
G02*
X137090000Y-113405000I-140000J0D01*
G01*
X136810000Y-113405000D01*
G75*
G02*
X136670000Y-113265000I0J140000D01*
G01*
G37*
G36*
G01*
X137630000Y-113265000D02*
X137630000Y-112925000D01*
G75*
G02*
X137770000Y-112785000I140000J0D01*
G01*
X138050000Y-112785000D01*
G75*
G02*
X138190000Y-112925000I0J-140000D01*
G01*
X138190000Y-113265000D01*
G75*
G02*
X138050000Y-113405000I-140000J0D01*
G01*
X137770000Y-113405000D01*
G75*
G02*
X137630000Y-113265000I0J140000D01*
G01*
G37*
D15*
X121930000Y-104620000D03*
X121920000Y-127400000D03*
D14*
X145920000Y-124310000D03*
X125110000Y-107800000D03*
%LPD*%
M02*
