G04 #@! TF.GenerationSoftware,KiCad,Pcbnew,9.0.1+1*
G04 #@! TF.CreationDate,2025-11-07T12:28:01+00:00*
G04 #@! TF.ProjectId,intergalaktik,696e7465-7267-4616-9c61-6b74696b2e6b,v1.0*
G04 #@! TF.SameCoordinates,Original*
G04 #@! TF.FileFunction,Copper,L1,Top*
G04 #@! TF.FilePolarity,Positive*
%FSLAX46Y46*%
G04 Gerber Fmt 4.6, Leading zero omitted, Abs format (unit mm)*
G04 Created by KiCad (PCBNEW 9.0.1+1) date 2025-11-07 12:28:01*
%MOMM*%
%LPD*%
G01*
G04 APERTURE LIST*
G04 #@! TA.AperFunction,ComponentPad*
%ADD10C,6.000000*%
G04 #@! TD*
G04 #@! TA.AperFunction,SMDPad,CuDef*
%ADD11C,0.500000*%
G04 #@! TD*
G04 #@! TA.AperFunction,ComponentPad*
%ADD12R,1.700000X1.700000*%
G04 #@! TD*
G04 #@! TA.AperFunction,ComponentPad*
%ADD13C,1.700000*%
G04 #@! TD*
G04 #@! TA.AperFunction,Conductor*
%ADD14C,0.200000*%
G04 #@! TD*
G04 APERTURE END LIST*
D10*
X125060000Y-124290000D03*
G04 #@! TA.AperFunction,SMDPad,CuDef*
G36*
G01*
X137466250Y-119437500D02*
X136953750Y-119437500D01*
G75*
G02*
X136735000Y-119218750I0J218750D01*
G01*
X136735000Y-118781250D01*
G75*
G02*
X136953750Y-118562500I218750J0D01*
G01*
X137466250Y-118562500D01*
G75*
G02*
X137685000Y-118781250I0J-218750D01*
G01*
X137685000Y-119218750D01*
G75*
G02*
X137466250Y-119437500I-218750J0D01*
G01*
G37*
G04 #@! TD.AperFunction*
G04 #@! TA.AperFunction,SMDPad,CuDef*
G36*
G01*
X137466250Y-117862500D02*
X136953750Y-117862500D01*
G75*
G02*
X136735000Y-117643750I0J218750D01*
G01*
X136735000Y-117206250D01*
G75*
G02*
X136953750Y-116987500I218750J0D01*
G01*
X137466250Y-116987500D01*
G75*
G02*
X137685000Y-117206250I0J-218750D01*
G01*
X137685000Y-117643750D01*
G75*
G02*
X137466250Y-117862500I-218750J0D01*
G01*
G37*
G04 #@! TD.AperFunction*
D11*
X148900000Y-104620000D03*
D12*
X132720000Y-114890000D03*
D13*
X132720000Y-117430000D03*
D10*
X145680000Y-107850000D03*
G04 #@! TA.AperFunction,SMDPad,CuDef*
G36*
G01*
X136670000Y-113265000D02*
X136670000Y-112925000D01*
G75*
G02*
X136810000Y-112785000I140000J0D01*
G01*
X137090000Y-112785000D01*
G75*
G02*
X137230000Y-112925000I0J-140000D01*
G01*
X137230000Y-113265000D01*
G75*
G02*
X137090000Y-113405000I-140000J0D01*
G01*
X136810000Y-113405000D01*
G75*
G02*
X136670000Y-113265000I0J140000D01*
G01*
G37*
G04 #@! TD.AperFunction*
G04 #@! TA.AperFunction,SMDPad,CuDef*
G36*
G01*
X137630000Y-113265000D02*
X137630000Y-112925000D01*
G75*
G02*
X137770000Y-112785000I140000J0D01*
G01*
X138050000Y-112785000D01*
G75*
G02*
X138190000Y-112925000I0J-140000D01*
G01*
X138190000Y-113265000D01*
G75*
G02*
X138050000Y-113405000I-140000J0D01*
G01*
X137770000Y-113405000D01*
G75*
G02*
X137630000Y-113265000I0J140000D01*
G01*
G37*
G04 #@! TD.AperFunction*
D11*
X121930000Y-104620000D03*
X121920000Y-127400000D03*
D10*
X145920000Y-124310000D03*
X125110000Y-107800000D03*
D14*
X137910000Y-116725000D02*
X137210000Y-117425000D01*
X137910000Y-113095000D02*
X137910000Y-116725000D01*
X134290000Y-119000000D02*
X132720000Y-117430000D01*
X137210000Y-119000000D02*
X134290000Y-119000000D01*
X132720000Y-114890000D02*
X135155000Y-114890000D01*
X135155000Y-114890000D02*
X136950000Y-113095000D01*
G04 #@! TA.AperFunction,Conductor*
G36*
X150077539Y-103415185D02*
G01*
X150123294Y-103467989D01*
X150134500Y-103519500D01*
X150134500Y-128500500D01*
X150114815Y-128567539D01*
X150062011Y-128613294D01*
X150010500Y-128624500D01*
X120819500Y-128624500D01*
X120752461Y-128604815D01*
X120706706Y-128552011D01*
X120695500Y-128500500D01*
X120695500Y-127473920D01*
X121169499Y-127473920D01*
X121198340Y-127618907D01*
X121198343Y-127618917D01*
X121254912Y-127755488D01*
X121254919Y-127755501D01*
X121337048Y-127878415D01*
X121337051Y-127878419D01*
X121441580Y-127982948D01*
X121441584Y-127982951D01*
X121564498Y-128065080D01*
X121564511Y-128065087D01*
X121701082Y-128121656D01*
X121701087Y-128121658D01*
X121701091Y-128121658D01*
X121701092Y-128121659D01*
X121846079Y-128150500D01*
X121846082Y-128150500D01*
X121993920Y-128150500D01*
X122091462Y-128131096D01*
X122138913Y-128121658D01*
X122275495Y-128065084D01*
X122398416Y-127982951D01*
X122502951Y-127878416D01*
X122585084Y-127755495D01*
X122641658Y-127618913D01*
X122670500Y-127473918D01*
X122670500Y-127326082D01*
X122670500Y-127326079D01*
X122641659Y-127181092D01*
X122641658Y-127181091D01*
X122641658Y-127181087D01*
X122641656Y-127181082D01*
X122585087Y-127044511D01*
X122585080Y-127044498D01*
X122502951Y-126921584D01*
X122502948Y-126921580D01*
X122398419Y-126817051D01*
X122398415Y-126817048D01*
X122275501Y-126734919D01*
X122275488Y-126734912D01*
X122138917Y-126678343D01*
X122138907Y-126678340D01*
X121993920Y-126649500D01*
X121993918Y-126649500D01*
X121846082Y-126649500D01*
X121846080Y-126649500D01*
X121701092Y-126678340D01*
X121701082Y-126678343D01*
X121564511Y-126734912D01*
X121564498Y-126734919D01*
X121441584Y-126817048D01*
X121441580Y-126817051D01*
X121337051Y-126921580D01*
X121337048Y-126921584D01*
X121254919Y-127044498D01*
X121254912Y-127044511D01*
X121198343Y-127181082D01*
X121198340Y-127181092D01*
X121169500Y-127326079D01*
X121169500Y-127326082D01*
X121169500Y-127473918D01*
X121169500Y-127473920D01*
X121169499Y-127473920D01*
X120695500Y-127473920D01*
X120695500Y-119266652D01*
X136235001Y-119266652D01*
X136245056Y-119365083D01*
X136297906Y-119524572D01*
X136297908Y-119524577D01*
X136386114Y-119667580D01*
X136504919Y-119786385D01*
X136647922Y-119874591D01*
X136647927Y-119874593D01*
X136807416Y-119927442D01*
X136905855Y-119937499D01*
X137460000Y-119937499D01*
X137514136Y-119937499D01*
X137514152Y-119937498D01*
X137612583Y-119927443D01*
X137772072Y-119874593D01*
X137772077Y-119874591D01*
X137915080Y-119786385D01*
X138033885Y-119667580D01*
X138122091Y-119524577D01*
X138122093Y-119524572D01*
X138174942Y-119365083D01*
X138184999Y-119266650D01*
X138185000Y-119266637D01*
X138185000Y-119250000D01*
X137460000Y-119250000D01*
X137460000Y-119937499D01*
X136905855Y-119937499D01*
X136959999Y-119937498D01*
X136960000Y-119937498D01*
X136960000Y-119250000D01*
X136235001Y-119250000D01*
X136235001Y-119266652D01*
X120695500Y-119266652D01*
X120695500Y-113992135D01*
X131369500Y-113992135D01*
X131369500Y-115787870D01*
X131369501Y-115787876D01*
X131375908Y-115847483D01*
X131426202Y-115982328D01*
X131426206Y-115982335D01*
X131512452Y-116097544D01*
X131512455Y-116097547D01*
X131627664Y-116183793D01*
X131627671Y-116183797D01*
X131672618Y-116200561D01*
X131762517Y-116234091D01*
X131822127Y-116240500D01*
X131832685Y-116240499D01*
X131899723Y-116260179D01*
X131920372Y-116276818D01*
X132590591Y-116947037D01*
X132527007Y-116964075D01*
X132412993Y-117029901D01*
X132319901Y-117122993D01*
X132254075Y-117237007D01*
X132237037Y-117300591D01*
X131604728Y-116668282D01*
X131604727Y-116668282D01*
X131565380Y-116722439D01*
X131468904Y-116911782D01*
X131403242Y-117113869D01*
X131403242Y-117113872D01*
X131370000Y-117323753D01*
X131370000Y-117536246D01*
X131403242Y-117746127D01*
X131403242Y-117746130D01*
X131468904Y-117948217D01*
X131565375Y-118137550D01*
X131604728Y-118191716D01*
X132237037Y-117559408D01*
X132254075Y-117622993D01*
X132319901Y-117737007D01*
X132412993Y-117830099D01*
X132527007Y-117895925D01*
X132590590Y-117912962D01*
X131958282Y-118545269D01*
X131958282Y-118545270D01*
X132012449Y-118584624D01*
X132201782Y-118681095D01*
X132403870Y-118746757D01*
X132613754Y-118780000D01*
X132826246Y-118780000D01*
X133036127Y-118746757D01*
X133036130Y-118746757D01*
X133238217Y-118681095D01*
X133427554Y-118584622D01*
X133481716Y-118545270D01*
X133481717Y-118545270D01*
X132849408Y-117912962D01*
X132912993Y-117895925D01*
X133027007Y-117830099D01*
X133120099Y-117737007D01*
X133185925Y-117622993D01*
X133202962Y-117559408D01*
X133835270Y-118191717D01*
X133835270Y-118191716D01*
X133874622Y-118137554D01*
X133971095Y-117948217D01*
X134036757Y-117746130D01*
X134036757Y-117746127D01*
X134070000Y-117536246D01*
X134070000Y-117323753D01*
X134036757Y-117113872D01*
X134036757Y-117113869D01*
X133971095Y-116911782D01*
X133874624Y-116722449D01*
X133835270Y-116668282D01*
X133835269Y-116668282D01*
X133202962Y-117300590D01*
X133185925Y-117237007D01*
X133120099Y-117122993D01*
X133027007Y-117029901D01*
X132912993Y-116964075D01*
X132849409Y-116947037D01*
X133519627Y-116276818D01*
X133580950Y-116243333D01*
X133607307Y-116240499D01*
X133617872Y-116240499D01*
X133677483Y-116234091D01*
X133812331Y-116183796D01*
X133927546Y-116097546D01*
X134013796Y-115982331D01*
X134064091Y-115847483D01*
X134070500Y-115787873D01*
X134070500Y-115614500D01*
X134090185Y-115547461D01*
X134142989Y-115501706D01*
X134194500Y-115490500D01*
X135068331Y-115490500D01*
X135068347Y-115490501D01*
X135075943Y-115490501D01*
X135234054Y-115490501D01*
X135234057Y-115490501D01*
X135386785Y-115449577D01*
X135436904Y-115420639D01*
X135523716Y-115370520D01*
X135635520Y-115258716D01*
X135635520Y-115258714D01*
X135645728Y-115248507D01*
X135645729Y-115248504D01*
X136952416Y-113941819D01*
X136978609Y-113927516D01*
X137003495Y-113911025D01*
X137010841Y-113909916D01*
X137013739Y-113908334D01*
X137038356Y-113905512D01*
X137039210Y-113905500D01*
X137154690Y-113905500D01*
X137179773Y-113903525D01*
X137183759Y-113903470D01*
X137213718Y-113911811D01*
X137244145Y-113918202D01*
X137247087Y-113921102D01*
X137251068Y-113922211D01*
X137271758Y-113945422D01*
X137293903Y-113967252D01*
X137295003Y-113971499D01*
X137297560Y-113974368D01*
X137300402Y-113992338D01*
X137309500Y-114027458D01*
X137309500Y-116363000D01*
X137289815Y-116430039D01*
X137237011Y-116475794D01*
X137185500Y-116487000D01*
X136905818Y-116487000D01*
X136807316Y-116497063D01*
X136807315Y-116497064D01*
X136728219Y-116523273D01*
X136647715Y-116549950D01*
X136647704Y-116549955D01*
X136504612Y-116638216D01*
X136504608Y-116638219D01*
X136385719Y-116757108D01*
X136385716Y-116757112D01*
X136297455Y-116900204D01*
X136297450Y-116900215D01*
X136278705Y-116956784D01*
X136244564Y-117059815D01*
X136244564Y-117059816D01*
X136244563Y-117059816D01*
X136234500Y-117158318D01*
X136234500Y-117691681D01*
X136244563Y-117790183D01*
X136297450Y-117949784D01*
X136297455Y-117949795D01*
X136385716Y-118092887D01*
X136385719Y-118092892D01*
X136418000Y-118125173D01*
X136451485Y-118186497D01*
X136446499Y-118256188D01*
X136418000Y-118300533D01*
X136386114Y-118332419D01*
X136297908Y-118475422D01*
X136297906Y-118475427D01*
X136245057Y-118634916D01*
X136235000Y-118733349D01*
X136235000Y-118750000D01*
X138184999Y-118750000D01*
X138184999Y-118733364D01*
X138184998Y-118733347D01*
X138174943Y-118634916D01*
X138122093Y-118475427D01*
X138122091Y-118475422D01*
X138033885Y-118332419D01*
X138002000Y-118300534D01*
X137968515Y-118239211D01*
X137973499Y-118169519D01*
X138002000Y-118125172D01*
X138034281Y-118092891D01*
X138122549Y-117949787D01*
X138175436Y-117790185D01*
X138185500Y-117691674D01*
X138185500Y-117350097D01*
X138194143Y-117320660D01*
X138200667Y-117290671D01*
X138204422Y-117285654D01*
X138205185Y-117283058D01*
X138221818Y-117262417D01*
X138268503Y-117215731D01*
X138268508Y-117215727D01*
X138278714Y-117205520D01*
X138278716Y-117205520D01*
X138390520Y-117093716D01*
X138469577Y-116956784D01*
X138510500Y-116804057D01*
X138510500Y-113761666D01*
X138530185Y-113694627D01*
X138546816Y-113673987D01*
X138560117Y-113660687D01*
X138642494Y-113521395D01*
X138687643Y-113365993D01*
X138690500Y-113329690D01*
X138690500Y-112860310D01*
X138687643Y-112824007D01*
X138642494Y-112668605D01*
X138560117Y-112529313D01*
X138560115Y-112529311D01*
X138560112Y-112529307D01*
X138445692Y-112414887D01*
X138445684Y-112414881D01*
X138355930Y-112361801D01*
X138306395Y-112332506D01*
X138306394Y-112332505D01*
X138306393Y-112332505D01*
X138306390Y-112332504D01*
X138150997Y-112287357D01*
X138150991Y-112287356D01*
X138114697Y-112284500D01*
X138114690Y-112284500D01*
X137705310Y-112284500D01*
X137705302Y-112284500D01*
X137669008Y-112287356D01*
X137669002Y-112287357D01*
X137513608Y-112332504D01*
X137513602Y-112332506D01*
X137493120Y-112344620D01*
X137425396Y-112361801D01*
X137366880Y-112344620D01*
X137346397Y-112332506D01*
X137346391Y-112332504D01*
X137190997Y-112287357D01*
X137190991Y-112287356D01*
X137154697Y-112284500D01*
X137154690Y-112284500D01*
X136745310Y-112284500D01*
X136745302Y-112284500D01*
X136709008Y-112287356D01*
X136709002Y-112287357D01*
X136553609Y-112332504D01*
X136553606Y-112332505D01*
X136414315Y-112414881D01*
X136414307Y-112414887D01*
X136299887Y-112529307D01*
X136299881Y-112529315D01*
X136217505Y-112668606D01*
X136217504Y-112668609D01*
X136172357Y-112824002D01*
X136172356Y-112824008D01*
X136169500Y-112860302D01*
X136169500Y-112974903D01*
X136149815Y-113041942D01*
X136133181Y-113062584D01*
X134942584Y-114253181D01*
X134881261Y-114286666D01*
X134854903Y-114289500D01*
X134194499Y-114289500D01*
X134127460Y-114269815D01*
X134081705Y-114217011D01*
X134070499Y-114165500D01*
X134070499Y-113992129D01*
X134070498Y-113992123D01*
X134070497Y-113992116D01*
X134064091Y-113932517D01*
X134059833Y-113921102D01*
X134013797Y-113797671D01*
X134013793Y-113797664D01*
X133927547Y-113682455D01*
X133927544Y-113682452D01*
X133812335Y-113596206D01*
X133812328Y-113596202D01*
X133677482Y-113545908D01*
X133677483Y-113545908D01*
X133617883Y-113539501D01*
X133617881Y-113539500D01*
X133617873Y-113539500D01*
X133617864Y-113539500D01*
X131822129Y-113539500D01*
X131822123Y-113539501D01*
X131762516Y-113545908D01*
X131627671Y-113596202D01*
X131627664Y-113596206D01*
X131512455Y-113682452D01*
X131512452Y-113682455D01*
X131426206Y-113797664D01*
X131426202Y-113797671D01*
X131375908Y-113932517D01*
X131371409Y-113974368D01*
X131369501Y-113992123D01*
X131369500Y-113992135D01*
X120695500Y-113992135D01*
X120695500Y-104693920D01*
X121179499Y-104693920D01*
X121208340Y-104838907D01*
X121208343Y-104838917D01*
X121264912Y-104975488D01*
X121264919Y-104975501D01*
X121347048Y-105098415D01*
X121347051Y-105098419D01*
X121451580Y-105202948D01*
X121451584Y-105202951D01*
X121574498Y-105285080D01*
X121574511Y-105285087D01*
X121711082Y-105341656D01*
X121711087Y-105341658D01*
X121711091Y-105341658D01*
X121711092Y-105341659D01*
X121856079Y-105370500D01*
X121856082Y-105370500D01*
X122003920Y-105370500D01*
X122101462Y-105351096D01*
X122148913Y-105341658D01*
X122285495Y-105285084D01*
X122408416Y-105202951D01*
X122512951Y-105098416D01*
X122595084Y-104975495D01*
X122651658Y-104838913D01*
X122680500Y-104693920D01*
X148149499Y-104693920D01*
X148178340Y-104838907D01*
X148178343Y-104838917D01*
X148234912Y-104975488D01*
X148234919Y-104975501D01*
X148317048Y-105098415D01*
X148317051Y-105098419D01*
X148421580Y-105202948D01*
X148421584Y-105202951D01*
X148544498Y-105285080D01*
X148544511Y-105285087D01*
X148681082Y-105341656D01*
X148681087Y-105341658D01*
X148681091Y-105341658D01*
X148681092Y-105341659D01*
X148826079Y-105370500D01*
X148826082Y-105370500D01*
X148973920Y-105370500D01*
X149071462Y-105351096D01*
X149118913Y-105341658D01*
X149255495Y-105285084D01*
X149378416Y-105202951D01*
X149482951Y-105098416D01*
X149565084Y-104975495D01*
X149621658Y-104838913D01*
X149650500Y-104693918D01*
X149650500Y-104546082D01*
X149650500Y-104546079D01*
X149621659Y-104401092D01*
X149621658Y-104401091D01*
X149621658Y-104401087D01*
X149621656Y-104401082D01*
X149565087Y-104264511D01*
X149565080Y-104264498D01*
X149482951Y-104141584D01*
X149482948Y-104141580D01*
X149378419Y-104037051D01*
X149378415Y-104037048D01*
X149255501Y-103954919D01*
X149255488Y-103954912D01*
X149118917Y-103898343D01*
X149118907Y-103898340D01*
X148973920Y-103869500D01*
X148973918Y-103869500D01*
X148826082Y-103869500D01*
X148826080Y-103869500D01*
X148681092Y-103898340D01*
X148681082Y-103898343D01*
X148544511Y-103954912D01*
X148544498Y-103954919D01*
X148421584Y-104037048D01*
X148421580Y-104037051D01*
X148317051Y-104141580D01*
X148317048Y-104141584D01*
X148234919Y-104264498D01*
X148234912Y-104264511D01*
X148178343Y-104401082D01*
X148178340Y-104401092D01*
X148149500Y-104546079D01*
X148149500Y-104546082D01*
X148149500Y-104693918D01*
X148149500Y-104693920D01*
X148149499Y-104693920D01*
X122680500Y-104693920D01*
X122680500Y-104693918D01*
X122680500Y-104546082D01*
X122680500Y-104546079D01*
X122651659Y-104401092D01*
X122651658Y-104401091D01*
X122651658Y-104401087D01*
X122651656Y-104401082D01*
X122595087Y-104264511D01*
X122595080Y-104264498D01*
X122512951Y-104141584D01*
X122512948Y-104141580D01*
X122408419Y-104037051D01*
X122408415Y-104037048D01*
X122285501Y-103954919D01*
X122285488Y-103954912D01*
X122148917Y-103898343D01*
X122148907Y-103898340D01*
X122003920Y-103869500D01*
X122003918Y-103869500D01*
X121856082Y-103869500D01*
X121856080Y-103869500D01*
X121711092Y-103898340D01*
X121711082Y-103898343D01*
X121574511Y-103954912D01*
X121574498Y-103954919D01*
X121451584Y-104037048D01*
X121451580Y-104037051D01*
X121347051Y-104141580D01*
X121347048Y-104141584D01*
X121264919Y-104264498D01*
X121264912Y-104264511D01*
X121208343Y-104401082D01*
X121208340Y-104401092D01*
X121179500Y-104546079D01*
X121179500Y-104546082D01*
X121179500Y-104693918D01*
X121179500Y-104693920D01*
X121179499Y-104693920D01*
X120695500Y-104693920D01*
X120695500Y-103519500D01*
X120715185Y-103452461D01*
X120767989Y-103406706D01*
X120819500Y-103395500D01*
X150010500Y-103395500D01*
X150077539Y-103415185D01*
G37*
G04 #@! TD.AperFunction*
M02*
